<svg width="55" height="55" viewBox="0 0 55 55" fill="none" xmlns="http://www.w3.org/2000/svg">
<path d="M54.6875 27.3612C54.6904 22.809 53.5568 18.3282 51.3895 14.3251C49.2221 10.322 46.0897 6.92337 42.2763 4.43743C38.4629 1.95149 34.0892 0.456928 29.5519 0.0893147C25.0147 -0.278298 20.4574 0.49267 16.2935 2.33229C12.1297 4.17191 8.49098 7.02196 5.70749 10.6239C2.92401 14.2259 1.08382 18.4658 0.353856 22.959C-0.376108 27.4522 0.0272465 32.0566 1.52733 36.3545C3.02742 40.6523 5.57677 44.5077 8.94414 47.5708C9.01072 47.6499 9.08824 47.719 9.17437 47.7762C14.1746 52.2387 20.6422 54.705 27.3442 54.7049C34.0461 54.7048 40.5136 52.2383 45.5137 47.7757C45.5994 47.7187 45.6766 47.6499 45.7429 47.5712C48.5613 45.013 50.8131 41.8933 52.3536 38.4126C53.8941 34.932 54.6891 31.1675 54.6875 27.3612ZM2.1875 27.3612C2.18462 23.2254 3.20147 19.1527 5.14803 15.5036C7.09458 11.8546 9.91078 8.7417 13.3473 6.44064C16.7839 4.13957 20.7347 2.72128 24.8501 2.31132C28.9656 1.90136 33.1186 2.51238 36.9415 4.09029C40.7645 5.66821 44.1394 8.16433 46.7676 11.3577C49.3957 14.551 51.196 18.3431 52.0091 22.3982C52.8221 26.4533 52.6229 30.6462 51.4289 34.6059C50.235 38.5656 48.0832 42.1699 45.1641 45.0996C42.449 40.5529 38.0929 37.2213 32.9939 35.7917C35.3638 34.5311 37.244 32.5141 38.3355 30.0618C39.427 27.6094 39.667 24.8625 39.0174 22.258C38.3678 19.6536 36.8658 17.3411 34.7505 15.6886C32.6352 14.0361 30.028 13.1384 27.3438 13.1384C24.6595 13.1384 22.0523 14.0361 19.937 15.6886C17.8217 17.3411 16.3197 19.6536 15.6701 22.258C15.0205 24.8625 15.2605 27.6094 16.352 30.0618C17.4435 32.5141 19.3237 34.5311 21.6936 35.7917C16.5946 37.2213 12.2385 40.5529 9.52345 45.0995C7.19568 42.7694 5.34972 40.0036 4.091 36.96C2.83229 33.9165 2.18547 30.6547 2.1875 27.3612ZM27.3438 35.0174C25.3968 35.0174 23.4937 34.4401 21.8749 33.3584C20.2561 32.2768 18.9944 30.7394 18.2493 28.9407C17.5043 27.142 17.3093 25.1627 17.6891 23.2532C18.069 21.3437 19.0065 19.5898 20.3832 18.2131C21.7598 16.8364 23.5138 15.8989 25.4233 15.5191C27.3328 15.1392 29.3121 15.3342 31.1108 16.0792C32.9095 16.8243 34.4469 18.086 35.5285 19.7048C36.6102 21.3236 37.1875 23.2268 37.1875 25.1737C37.1846 27.7835 36.1465 30.2856 34.3011 32.131C32.4557 33.9764 29.9536 35.0145 27.3438 35.0174ZM11.174 46.6158C12.7973 43.7583 15.1488 41.382 17.9892 39.7289C20.8296 38.0758 24.0573 37.2049 27.3437 37.2049C30.6301 37.2049 33.8578 38.0758 36.6982 39.729C39.5386 41.3821 41.8901 43.7584 43.5134 46.6159C38.9875 50.4273 33.2607 52.5174 27.3437 52.5174C21.4267 52.5174 15.6999 50.4272 11.174 46.6158Z" fill="black"/>
</svg>
